<svg xmlns="http://www.w3.org/2000/svg" xmlns:xlink="http://www.w3.org/1999/xlink" id="_x2E_NET_logo" width="24" height="24" x="0" style="enable-background:new 0 0 24 24" y="0" version="1.1" viewBox="0 0 24 24" xml:space="preserve"><style type="text/css">.st0{fill:#fff}</style><g><path d="M3.8,15.1c-0.2,0-0.3-0.1-0.4-0.2c-0.1-0.1-0.2-0.3-0.2-0.4c0-0.2,0.1-0.3,0.2-0.4s0.3-0.2,0.4-0.2 c0.2,0,0.3,0.1,0.5,0.2c0.1,0.1,0.2,0.3,0.2,0.4c0,0.2-0.1,0.3-0.2,0.4C4.1,15.1,4,15.1,3.8,15.1z" class="st0"/><path d="M10.9,15H9.8l-3-4.6c-0.1-0.1-0.1-0.2-0.2-0.4h0c0,0.1,0,0.4,0,0.9V15h-1V8.7h1.2l2.9,4.5 c0.1,0.2,0.2,0.3,0.2,0.4h0c0-0.2,0-0.5,0-0.8V8.7h1V15z" class="st0"/><path d="M16,15h-3.5V8.7h3.4v0.9h-2.4v1.8h2.2v0.9h-2.2v1.9H16V15z" class="st0"/><path d="M21.2,9.6h-1.8V15h-1V9.6h-1.8V8.7h4.7V9.6z" class="st0"/></g><g><path d="M23,1v22H1V1H23 M24,0H0v24h24V0L24,0z" class="st0"/></g></svg>