<svg xmlns="http://www.w3.org/2000/svg" xmlns:xlink="http://www.w3.org/1999/xlink" id="Camada_1" width="16" height="16" x="0" y="0" enable-background="new 0 0 16 16" version="1.1" viewBox="0 0 16 16" xml:space="preserve"><g><g><path d="M8,1.759l7,2v8.618l-7,1.869l-7-1.869V3.759L8,1.759 M8,0.719L0,3.005v10.14l8,2.137l8-2.137V3.005L8,0.719L8,0.719z"/></g><g><path d="M9,2.022l6,1.737v8.618l-6,1.603V2 M8,0.719v14.562l8-2.137V3.005L8,0.719L8,0.719z"/></g><g><g><path d="M8,1.759l6.051,1.729L8,5.102L1.949,3.488L8,1.759 M8,0.719L0,3.005v0.998l8,2.134l8-2.134V3.005L8,0.719L8,0.719z"/></g></g></g></svg>